<svg width="80" height="80" viewBox="0 0 80 80" fill="none" xmlns="http://www.w3.org/2000/svg">
<circle cx="40" cy="40" r="40" fill="#F9786D"/>
<path d="M53.5 28H48.85C48.5019 26.3071 47.5807 24.786 46.2419 23.6931C44.903 22.6001 43.2283 22.0022 41.5 22L38.5 22C36.7717 22.0022 35.097 22.6001 33.7581 23.6931C32.4193 24.786 31.4981 26.3071 31.15 28H26.5C26.1022 28 25.7206 28.158 25.4393 28.4393C25.158 28.7206 25 29.1022 25 29.5C25 29.8978 25.158 30.2794 25.4393 30.5607C25.7206 30.842 26.1022 31 26.5 31H28V50.5C28.0024 52.4884 28.7933 54.3947 30.1993 55.8007C31.6053 57.2067 33.5116 57.9976 35.5 58H44.5C46.4884 57.9976 48.3947 57.2067 49.8007 55.8007C51.2067 54.3947 51.9976 52.4884 52 50.5V31H53.5C53.8978 31 54.2794 30.842 54.5607 30.5607C54.842 30.2794 55 29.8978 55 29.5C55 29.1022 54.842 28.7206 54.5607 28.4393C54.2794 28.158 53.8978 28 53.5 28ZM38.5 25H41.5C42.4304 25.0011 43.3377 25.2901 44.0974 25.8272C44.8572 26.3643 45.4321 27.1232 45.7435 28H34.2565C34.5679 27.1232 35.1429 26.3643 35.9026 25.8272C36.6623 25.2901 37.5696 25.0011 38.5 25ZM49 50.5C49 51.6935 48.5259 52.8381 47.682 53.682C46.8381 54.5259 45.6935 55 44.5 55H35.5C34.3065 55 33.1619 54.5259 32.318 53.682C31.4741 52.8381 31 51.6935 31 50.5V31H49V50.5Z" fill="white" stroke="white"/>
<path d="M37 49C37.3978 49 37.7794 48.842 38.0607 48.5607C38.342 48.2794 38.5 47.8978 38.5 47.5V38.5C38.5 38.1022 38.342 37.7206 38.0607 37.4393C37.7794 37.158 37.3978 37 37 37C36.6022 37 36.2206 37.158 35.9393 37.4393C35.658 37.7206 35.5 38.1022 35.5 38.5V47.5C35.5 47.8978 35.658 48.2794 35.9393 48.5607C36.2206 48.842 36.6022 49 37 49Z" fill="white"/>
<path d="M43 49C43.3978 49 43.7794 48.842 44.0607 48.5607C44.342 48.2794 44.5 47.8978 44.5 47.5V38.5C44.5 38.1022 44.342 37.7206 44.0607 37.4393C43.7794 37.158 43.3978 37 43 37C42.6022 37 42.2206 37.158 41.9393 37.4393C41.658 37.7206 41.5 38.1022 41.5 38.5V47.5C41.5 47.8978 41.658 48.2794 41.9393 48.5607C42.2206 48.842 42.6022 49 43 49Z" fill="white"/>
</svg>
